<svg xmlns="http://www.w3.org/2000/svg" xmlns:xlink="http://www.w3.org/1999/xlink" viewBox="0 0 765.6 765.6"><defs><style>.a{fill:#cf8b5f;}.a,.b,.c,.d,.e,.f,.g,.h,.i,.j,.k,.l,.m,.n,.o,.p,.q,.r{fill-rule:evenodd;}.c{fill:#f8f3ef;}.d{fill:#b26c52;}.e{fill:#fff;}.f{fill:url(#a);}.g{fill:#666;}.h{fill:#fcbd92;}.i{fill:#e6e7e8;}.j{fill:#e99d65;}.k{fill:#c1c1c1;}.l{fill:#9d2700;}.m{fill:#711d00;}.n{fill:#f7b986;}.o{fill:#9f5a39;}.p{fill:#565656;}.q{fill:#2f2f2f;}.r{fill:#b87b5f;}</style><linearGradient id="a" x1="416.21" y1="38.67" x2="416.21" y2="804.27" gradientUnits="userSpaceOnUse"><stop offset="0" stop-color="#60e4ea"/><stop offset="1" stop-color="#54c6d1"/></linearGradient><symbol id="b" viewBox="0 0 21.11 30.45"><path class="a" d="M0,30.45Q8.55,23,2.4,15.5A16.07,16.07,0,0,0,1,14Q10.15-3.54,19.4.9q4.46,3.21-2.65,18.4Q21,3.81,16.15,3.5,11.1,2.3,4.25,12.8q6.75-1.7,7.35,5.05c-2.23-2.4-4.52-3.43-6.85-3.1Q11.8,24.71,0,30.45Z"/></symbol><symbol id="d" viewBox="0 0 61.49 50.93"><path class="b" d="M9.94,37.34l0-.4q16.45-13.3,31.35-7.55a30.11,30.11,0,0,1,6.9,3.7,16.35,16.35,0,0,1,1.15,8c-.43.67-.88,1.3-1.35,1.9a16.4,16.4,0,0,0,0-2.35,14.61,14.61,0,0,0-1.15-5.15Q29.4,23,9.94,37.34Z"/><path class="c" d="M47.89,40.64q-13.9,14.19-37,5.65l-.9-8.95Q29.4,23,46.74,35.49A14.61,14.61,0,0,1,47.89,40.64Z"/><path class="a" d="M10.84,46.29Q34,54.83,47.89,40.64a16.4,16.4,0,0,1,0,2.35q-12.48,13.65-37,3.85Z"/><path class="d" d="M21.69,39a9,9,0,0,1,2.5-6.4,8.76,8.76,0,0,1,12.65,0A8.88,8.88,0,0,1,39.39,39a9.2,9.2,0,0,1-2.55,6.45,9,9,0,0,1-12.65,0A9.33,9.33,0,0,1,21.69,39Z"/><path class="b" d="M52.84,3.94a26.94,26.94,0,0,1,8.65,17.4Q38.9,4.93,4.34,14.89-2.9,11.7,1.94.79A160,160,0,0,1,52.84,3.94ZM26.74,42.29a6.54,6.54,0,0,1-1.85-4.65A6.42,6.42,0,0,1,26.74,33a6.48,6.48,0,0,1,11.1,4.65A6.49,6.49,0,0,1,36,42.29a6.46,6.46,0,0,1-9.25,0Z"/><path class="e" d="M29.22,36.2a3.45,3.45,0,0,1,1-2.53,3.49,3.49,0,0,1,5.05,0,3.46,3.46,0,0,1,1,2.53,3.51,3.51,0,0,1-1,2.56,3.54,3.54,0,0,1-5.05,0A3.5,3.5,0,0,1,29.22,36.2Z"/></symbol></defs><path class="f" d="M33.41,421.47q0-158.49,112.16-270.64T416.21,38.67q158.49,0,270.65,112.16T799,421.47Q799,580,686.86,692.11T416.21,804.27q-158.47,0-270.64-112.16T33.41,421.47Z" transform="translate(-33.41 -38.67)"/><path class="g" d="M359,672.6,358.14,683,342.62,666l16.85-1.1Zm110.82,18.85-10-33.92-3.33-11.08,35.25,6Z" transform="translate(-33.41 -38.67)"/><path class="h" d="M359.47,664.85l.66-8.87q31.69,19.29,63.62,14.63l10.42,45.22-8.87,27.92L359,672.6Z" transform="translate(-33.41 -38.67)"/><path class="i" d="M407.79,736.44,373.43,787.2l-72.26-61.62-9.3-8L342.62,666,358.14,683ZM333.2,796q-27.48-24.72-51.31-60.4l7.53-3.77,85,70.48A389.49,389.49,0,0,1,333.2,796Zm173.45-78.58-25.71,66.5L446.36,732l23.49-40.56,21.95-39L518.18,687Zm-76.92,86.67,22.17-32.36L477,799.39l-.55.67A413.1,413.1,0,0,1,429.73,804.05ZM382,802.94l11.41-24.6,7.54,25.71Q391.33,803.71,382,802.94Z" transform="translate(-33.41 -38.67)"/><path class="a" d="M456.55,646.45l3.33,11.08Q441.7,668,423.75,670.61q-31.92,4.65-63.62-14.63l11.31-144.74h45.22Z" transform="translate(-33.41 -38.67)"/><path class="j" d="M422,804.27l-14.19-67.83L358.14,683,359,672.6l66.27,71.15,8.87-27.92-10.42-45.22q18-2.65,36.13-13.08l10,33.92L446.36,732l-19.62,72.15Z" transform="translate(-33.41 -38.67)"/><path class="k" d="M407.79,736.44,422,804.27h-5.77q-7.71,0-15.29-.22l-7.54-25.71L382,802.94c-2.51-.2-5-.42-7.54-.67l-85-70.48,11.75-6.21,72.26,61.62Zm18.95,67.72L446.36,732l34.58,51.87,25.71-66.5,4.88,1.77a147,147,0,0,1,.22,35,104.43,104.43,0,0,1-14.63,42.22q-10.26,2.07-20.72,3.66l.55-.67-25.05-27.7-22.17,32.36Z" transform="translate(-33.41 -38.67)"/><path class="l" d="M511.75,754.18l45.44,24.49a361.71,361.71,0,0,1-60.07,17.73A104.43,104.43,0,0,0,511.75,754.18ZM281.89,735.56q23.82,35.69,51.31,60.4a356.31,356.31,0,0,1-98.3-36.24Z" transform="translate(-33.41 -38.67)"/><path class="m" d="M557.19,778.67l-45.44-24.49a147,147,0,0,0-.22-35l90.88,37.9A357.94,357.94,0,0,1,557.19,778.67Z" transform="translate(-33.41 -38.67)"/><path class="n" d="M556.08,489.52l4.93-90a2.82,2.82,0,0,1,.67-.67Q587.89,370,584.86,417.7A158,158,0,0,1,579.15,449a.64.64,0,0,0-.22.45Q565.15,494,556.75,490Z" transform="translate(-33.41 -38.67)"/><path class="n" d="M257.06,456.71q11.76-137,75.37-171.34,83.79,27.7,133.88,6,73.14,8,70.71,135.21l-16.85,121q-57,127.89-195.94,76.92-50.76-32.14-59.63-74.7l-2-24.83-2.44-39.23Z" transform="translate(-33.41 -38.67)"/><path class="n" d="M249.31,398l7.75,90.44a1.7,1.7,0,0,0-.55.67,4.59,4.59,0,0,1-.55.44q-8.53,6.64-22.94-40.12a1,1,0,0,0-.12-.45,154.41,154.41,0,0,1-5.76-31.25Q224.26,372,248,396.42l.66.89A3,3,0,0,1,249.31,398Z" transform="translate(-33.41 -38.67)"/><path class="a" d="M565.83,399.53l-9.75,90a3.85,3.85,0,0,1-1.11-.22,20.24,20.24,0,0,1-4.65-3.55L559,403.51q2.88-1.77,5.54-3.32A5.15,5.15,0,0,1,565.83,399.53Z" transform="translate(-33.41 -38.67)"/><path class="a" d="M257.06,488.41,241.55,398q4.44,2.44,9.75,5.54l5.76,53.2,3.11,29A24.5,24.5,0,0,1,257.06,488.41Z" transform="translate(-33.41 -38.67)"/><path class="j" d="M559,403.51l-8.64,82.24L548.1,525l-2,24.83Q534.81,607,447.69,645.12q-37.45,16.18-84,0a304.8,304.8,0,0,1-39.45-20.61q139,51,195.94-76.92l16.85-121q2.43-127.23-70.71-135.21-50.1,21.72-133.88-6-63.62,34.35-75.37,171.34l-5.76-53.2-1.55-13.74q-34.35-225.19,121-233.18h67.6q155.16,8,122.13,233.18Z" transform="translate(-33.41 -38.67)"/><path class="j" d="M359.25,521.44q35.25,18,77.36,0Q393.38,571.09,359.25,521.44Z" transform="translate(-33.41 -38.67)"/><path class="o" d="M345.53,564.21a123,123,0,0,0,61.47,14q32.92,3.77,57.26-14.85l8.05,9.53-7.86-2.44a78.18,78.18,0,0,0-8.24,3.77q-54,25.27-103.36-2a38.75,38.75,0,0,0-5.86-3.33l-8.6,4.66Z" transform="translate(-33.41 -38.67)"/><path class="o" d="M359.25,521.44a189.48,189.48,0,0,0,77.36,0Q394.49,539.4,359.25,521.44Z" transform="translate(-33.41 -38.67)"/><use width="21.11" height="30.45" transform="translate(524.8 368.83) scale(1.01 2.01)" xlink:href="#b"/><use width="21.11" height="30.45" transform="matrix(-1, 0, 0, 2.01, 220.22, 371.05)" xlink:href="#b"/><use width="61.49" height="50.93" transform="translate(390.09 298.06) scale(2.01)" xlink:href="#d"/><use width="61.49" height="50.93" transform="matrix(-2.01, 0, 0, 2.01, 347.14, 298.06)" xlink:href="#d"/><path class="p" d="M401.59,94.53q170.88,70.92,128.78,148.28-38.79-41.88-78.69-26.6a5,5,0,0,1-1.55.67q-26.82,27.93-91.77,35.69-8-2.9-16-6.65-123.9-7.09-113.26,141-17.29-51.42-10.87-145-13.52,1.11-27,14Q207.42,224,234,209.79q3.33-47.65,36.8-86.23a32.73,32.73,0,0,0,0,26.38Q332.87,103.4,401.59,94.53Z" transform="translate(-33.41 -38.67)"/><path class="q" d="M342.4,245.92q-84.88,8.87-84.67,94.42a392,392,0,0,0-3.54,89.55q-16-15.51-25.05-43Q218.51,238.83,342.4,245.92Z" transform="translate(-33.41 -38.67)"/><path class="q" d="M358.36,252.57q65-7.75,91.77-35.69a5,5,0,0,0,1.55-.67q39.9-15.28,78.69,26.6,42.11-77.35-128.78-148.28Q464.3,86.1,532.8,109.6l-60.06,5.76q123.68,17.3,147.84,113.27l-18.84-16.4Q615,278.05,591.76,337l-8.2-31.26q-1.54,71.6-26.37,114.16l-13.74-95.09q-7.32-71.16-87.78-82.9Q407.57,269.19,358.36,252.57Z" transform="translate(-33.41 -38.67)"/><path class="b" d="M261.94,423.24q2.22,20,8,29.48,6.87,11.08,12.86,15.3,9.3,6.19,29.48,8.42,21.06,2.22,35-3.55a43.55,43.55,0,0,0,20.17-18.17A95.7,95.7,0,0,0,379,423.91q4-19.73-3.32-28.6-7.09-8.42-25.71-12.19a128.77,128.77,0,0,0-30.15-2.88,181.9,181.9,0,0,0-32.58,3.1q-21.06,3.78-24.16,11.31Q259.51,403.29,261.94,423.24Zm218.78-43a129.89,129.89,0,0,0-30.37,2.88q-18.41,3.76-25.49,12.19-7.32,8.87-3.32,28.6a103.24,103.24,0,0,0,11.52,30.81,43.5,43.5,0,0,0,20.17,18.17q14,5.78,35,3.55,20-2.22,29.26-8.42,6.43-4.22,13.08-15.3,5.53-9.53,8.2-29.48,2.22-20-1.33-28.59-3.11-7.53-24.16-11.31A181.9,181.9,0,0,0,480.72,380.24ZM253.08,426.12q-2.45-11.08-6.88-14.85a4.69,4.69,0,0,0-2.66-1.77l-1.1-.22v-18.4q18.17-13.51,56.3-17.51a226,226,0,0,1,29.92-1.11,116.24,116.24,0,0,1,22.17,2.44,203.59,203.59,0,0,0,26.37,4.66q8.87.88,23.28.88,14,0,22.83-.88a201.91,201.91,0,0,0,26.59-4.66q8.21-2,22.17-2.44A227.83,227.83,0,0,1,502,373.37q38.35,4,56.53,17.51v18.4q-2-.22-4,2-4.44,3.78-6.88,14.85-3.54,17.07-10.19,28.82-8.87,17.07-22.83,22.61-17.29,6.65-38.79,6-23.94-.66-36.57-10.86a67.59,67.59,0,0,1-18-24.16Q417.77,441,414,426.57q-3.11-12.85-3.77-14.19-2.88-5.53-9.75-5.54-7.32,0-10,5.54-.88,1.33-4,14.19a144.49,144.49,0,0,1-7.31,21.94,67.7,67.7,0,0,1-18,24.16q-12.63,10.2-36.57,10.86-21.5.68-38.79-6-13.74-5.55-22.83-22.61Q256.63,443.2,253.08,426.12Z" transform="translate(-33.41 -38.67)"/><path class="r" d="M441.17,625.71q-37.46-8-71.38.67,7.32-14.42,35.69-13.08Q433.64,612.85,441.17,625.71Z" transform="translate(-33.41 -38.67)"/></svg>